<svg id="Layer_1" data-name="Layer 1" xmlns="http://www.w3.org/2000/svg" viewBox="0 0 474.46 70"><defs><style>.cls-1{fill:#353238;}.cls-2{fill:#0086a8;}</style></defs><title>logo</title><path class="cls-1" d="M2.44,55.54a24.25,24.25,0,0,0,5.47,3.53A33.63,33.63,0,0,0,15,61.54a39.28,39.28,0,0,0,8.26,1,26.36,26.36,0,0,0,8.89-1.39,14.4,14.4,0,0,0,6.33-3.86,8.68,8.68,0,0,0,2.36-6A7.82,7.82,0,0,0,37,44.49c-2.58-1.71-6.76-3-12.33-4l-5.36-1c-6.22-1.07-10.93-3.21-14.15-6.21A15.52,15.52,0,0,1,.4,21.66a17.2,17.2,0,0,1,3.33-10.5A21.26,21.26,0,0,1,13.05,4,33.84,33.84,0,0,1,26.56,1.4h1.61A43.33,43.33,0,0,1,45.64,5.58l-.32,9.22A36,36,0,0,0,26.77,9.44a24.08,24.08,0,0,0-8.57,1.39,14.66,14.66,0,0,0-6.11,3.86A9,9,0,0,0,9.73,20.8a8,8,0,0,0,3.54,6.76c2.35,1.71,6.21,3,11.57,4l4.72.75c7,1.18,12.11,3.22,15.54,6.22a14.75,14.75,0,0,1,5.15,11.69,17.28,17.28,0,0,1-3.32,10.5,21.92,21.92,0,0,1-9.54,7.18,35.3,35.3,0,0,1-13.83,2.58h-1.4a45.91,45.91,0,0,1-10.61-1.61A44.06,44.06,0,0,1,1.8,65Z" transform="translate(-0.4 -0.44)"/><path class="cls-1" d="M219.94,61.65h37.84l-3.32,8.14H211.15V2.37h46l-3.32,8.14H219.94V31.85h28.95L245.56,40H219.94Z" transform="translate(-0.4 -0.44)"/><path class="cls-1" d="M265.72,55.54a24.17,24.17,0,0,0,5.46,3.53,33.93,33.93,0,0,0,7.08,2.47,39.27,39.27,0,0,0,8.25,1,26.38,26.38,0,0,0,8.9-1.39,14.4,14.4,0,0,0,6.33-3.86,8.71,8.71,0,0,0,2.35-6,7.8,7.8,0,0,0-3.86-6.76c-2.57-1.71-6.75-3-12.32-4l-5.36-1c-6.22-1.07-10.94-3.21-14.15-6.21a15.52,15.52,0,0,1-4.72-11.69A17.26,17.26,0,0,1,267,11.16,21.29,21.29,0,0,1,276.33,4,33.84,33.84,0,0,1,289.84,1.4h1.6a43.34,43.34,0,0,1,17.48,4.18l-.32,9.22a36,36,0,0,0-18.55-5.36,24.14,24.14,0,0,0-8.58,1.39,14.79,14.79,0,0,0-6.11,3.86A9,9,0,0,0,273,20.8a8,8,0,0,0,3.53,6.76c2.36,1.71,6.22,3,11.58,4l4.72.75c7,1.18,12.11,3.22,15.54,6.22a14.75,14.75,0,0,1,5.15,11.69,17.29,17.29,0,0,1-3.33,10.5,21.8,21.8,0,0,1-9.54,7.18,35.23,35.23,0,0,1-13.83,2.58h-1.39a45.83,45.83,0,0,1-10.61-1.61A44.34,44.34,0,0,1,265.07,65Z" transform="translate(-0.4 -0.44)"/><path class="cls-1" d="M325.32,5.9,334,2.58V70h-8.68Z" transform="translate(-0.4 -0.44)"/><path class="cls-1" d="M466.07,6.12l8.79-3.33V69.9H466.5l-40.84-53v53h-8.79V2.47h8.36l40.84,53Z" transform="translate(-0.4 -0.44)"/><path class="cls-1" d="M396.28,17.91a23.24,23.24,0,0,0-8.14-5.57,25.65,25.65,0,0,0-9.87-1.93,25,25,0,0,0-12.86,3.32,24.37,24.37,0,0,0-9.22,9.43,26.34,26.34,0,0,0-3.32,13.29A28,28,0,0,0,356,49.53a23.4,23.4,0,0,0,8.79,9.22,24.42,24.42,0,0,0,12.54,3.32c6.54,0,11.68-1.71,15.65-5.14s6.22-8.25,6.86-14.69H373.77l4-4.28a10.71,10.71,0,0,1,7.72-3.43h23.47v1.39a37.77,37.77,0,0,1-3.86,17.26,29.84,29.84,0,0,1-10.93,12.11,31,31,0,0,1-16.94,4.5,34.56,34.56,0,0,1-16.51-4.07,32.57,32.57,0,0,1-12.11-11.36,33.52,33.52,0,0,1-4.72-17.91,34.63,34.63,0,0,1,4.4-17.25A30.92,30.92,0,0,1,360.69,7a35,35,0,0,1,17.58-4.4,37.28,37.28,0,0,1,13.51,2.47,32,32,0,0,1,10.4,6.75Z" transform="translate(-0.4 -0.44)"/><path class="cls-1" d="M112.1,69.9l-33-36.23L109.21,1.94h-6.33A11,11,0,0,0,95,5.37L68.37,34V.44L59.68,3.76V69.9h8.69V44.82l4.82-4.94,23.9,26.48a10.42,10.42,0,0,0,7.83,3.43h7.18Z" transform="translate(-0.4 -0.44)"/><path class="cls-2" d="M145.33,49.21V10.62h19.94c6.54,0,11.79,1.61,15.76,4.61l5.9-6.43a41.43,41.43,0,0,0-3.65-2.36,37.86,37.86,0,0,0-18-4.07H136.54V64.22l5.26-5.79A13.75,13.75,0,0,0,145.33,49.21Z" transform="translate(-0.4 -0.44)"/><path class="cls-1" d="M192.93,15.12l-6.33,7A31.85,31.85,0,0,1,189.39,36c0,8.25-2.14,14.47-6.32,18.86s-10.19,6.65-17.9,6.65H156a11.9,11.9,0,0,0-8.79,3.86l-4,4.29h21.87a37.41,37.41,0,0,0,18.11-4.18,27.67,27.67,0,0,0,11.47-11.8,37.52,37.52,0,0,0,4-17.79c0-6.86-1.29-12.76-4-17.8A21.37,21.37,0,0,0,192.93,15.12Z" transform="translate(-0.4 -0.44)"/></svg>